<svg xmlns="http://www.w3.org/2000/svg" width="40" height="40" fill="none"><path fill="#534FEB" d="M37.8 20c1.215 0 2.213.988 2.08 2.196a20 20 0 1 1-2.446-11.998c.595 1.06.064 2.36-1.054 2.835-1.118.475-2.398-.056-3.026-1.096a15.6 15.6 0 1 0 2.091 10.256C35.615 20.99 36.585 20 37.8 20Z"/><path fill="#534FEB" d="M20 9.32c0-.729-.593-1.328-1.317-1.247a12 12 0 0 0-8.77 18.426c.394.613 1.233.696 1.798.236.566-.46.643-1.287.267-1.912a9.36 9.36 0 0 1 6.706-14.09C19.406 10.63 20 10.049 20 9.32Z"/><path fill="#534FEB" d="M25.748 15.798c.392-.287.481-.841.153-1.2a8.001 8.001 0 0 0-13.368 2.53c-.174.453.111.937.581 1.06.47.124.946-.16 1.134-.608a6.24 6.24 0 0 1 10.222-1.934c.34.348.886.439 1.278.152Z"/></svg>